<svg width="72" height="72" viewBox="0 0 72 72" fill="none" xmlns="http://www.w3.org/2000/svg">
<circle cx="36" cy="36" r="36" fill="#FFD0D0"/>
<circle cx="36" cy="36" r="24" fill="#EF4444"/>
<path d="M35.0833 27.75L43.3325 28.9292L44.5108 37.1792L36.8508 44.8392C36.6945 44.9954 36.4826 45.0832 36.2616 45.0832C36.0407 45.0832 35.8287 44.9954 35.6725 44.8392L27.4225 36.5892C27.2662 36.4329 27.1785 36.221 27.1785 36C27.1785 35.779 27.2662 35.5671 27.4225 35.4108L35.0833 27.75ZM37.44 34.8217C37.5948 34.9764 37.7785 35.0991 37.9807 35.1829C38.183 35.2666 38.3997 35.3097 38.6186 35.3096C38.8375 35.3096 39.0542 35.2664 39.2564 35.1826C39.4586 35.0988 39.6423 34.976 39.797 34.8212C39.9518 34.6665 40.0745 34.4827 40.1582 34.2805C40.242 34.0782 40.285 33.8615 40.285 33.6426C40.285 33.4237 40.2418 33.207 40.158 33.0048C40.0742 32.8026 39.9514 32.6189 39.7966 32.4642C39.6418 32.3094 39.4581 32.1867 39.2558 32.103C39.0536 32.0192 38.8369 31.9762 38.618 31.9762C38.176 31.9763 37.7521 32.152 37.4395 32.4646C37.127 32.7772 36.9515 33.2012 36.9516 33.6432C36.9517 34.0853 37.1273 34.5092 37.44 34.8217Z" fill="white"/>
</svg>
