<svg width="72" height="72" viewBox="0 0 72 72" fill="none" xmlns="http://www.w3.org/2000/svg">
<circle cx="36" cy="36" r="36" fill="#CDBCFF"/>
<circle cx="36" cy="36" r="24" fill="#8358FF"/>
<path d="M44.3332 31H38.4998C37.1738 31 35.902 31.5268 34.9643 32.4645C34.0266 33.4021 33.4998 34.6739 33.4998 36C33.4998 37.3261 34.0266 38.5979 34.9643 39.5355C35.902 40.4732 37.1738 41 38.4998 41H44.3332V42.6667C44.3332 42.8877 44.2454 43.0996 44.0891 43.2559C43.9328 43.4122 43.7208 43.5 43.4998 43.5H28.4998C28.2788 43.5 28.0669 43.4122 27.9106 43.2559C27.7543 43.0996 27.6665 42.8877 27.6665 42.6667V29.3333C27.6665 29.1123 27.7543 28.9004 27.9106 28.7441C28.0669 28.5878 28.2788 28.5 28.4998 28.5H43.4998C43.7208 28.5 43.9328 28.5878 44.0891 28.7441C44.2454 28.9004 44.3332 29.1123 44.3332 29.3333V31ZM38.4998 32.6667H45.1665V39.3333H38.4998C37.6158 39.3333 36.7679 38.9821 36.1428 38.357C35.5177 37.7319 35.1665 36.8841 35.1665 36C35.1665 35.1159 35.5177 34.2681 36.1428 33.643C36.7679 33.0179 37.6158 32.6667 38.4998 32.6667ZM38.4998 35.1667V36.8333H40.9998V35.1667H38.4998Z" fill="white"/>
</svg>
