<svg width="72" height="72" viewBox="0 0 72 72" fill="none" xmlns="http://www.w3.org/2000/svg">
<circle cx="36" cy="36" r="36" fill="#CDDFFB"/>
<circle cx="36" cy="36" r="24" fill="#428AF8"/>
<path d="M40.5076 41.8333C39.8609 39.8342 38.6101 38.5958 36.9526 37.165C38.5746 35.8683 40.5902 35.1634 42.6667 35.1667V28.5H43.5067C43.9634 28.5 44.3334 28.8708 44.3334 29.3275V42.6725C44.3319 42.8914 44.2443 43.1008 44.0897 43.2557C43.935 43.4105 43.7256 43.4983 43.5067 43.5H28.4934C28.2741 43.4998 28.0638 43.4125 27.9088 43.2573C27.7538 43.1022 27.6667 42.8918 27.6667 42.6725V29.3275C27.6683 29.1087 27.7558 28.8992 27.9105 28.7444C28.0652 28.5895 28.2746 28.5018 28.4934 28.5H31.0001V26.8333H32.6667V30.1667H29.3334V36C33.6834 36 37.3851 38.0517 38.7609 41.8333H40.5076ZM41.0001 26.8333V30.1667H34.3334V28.5H39.3334V26.8333H41.0001ZM39.7501 34.3333C39.4186 34.3333 39.1006 34.2016 38.8662 33.9672C38.6318 33.7328 38.5001 33.4149 38.5001 33.0833C38.5001 32.7518 38.6318 32.4339 38.8662 32.1995C39.1006 31.965 39.4186 31.8333 39.7501 31.8333C40.0816 31.8333 40.3995 31.965 40.634 32.1995C40.8684 32.4339 41.0001 32.7518 41.0001 33.0833C41.0001 33.4149 40.8684 33.7328 40.634 33.9672C40.3995 34.2016 40.0816 34.3333 39.7501 34.3333Z" fill="white"/>
</svg>
