<svg width="40" height="40" viewBox="0 0 40 40" fill="none" xmlns="http://www.w3.org/2000/svg">
<circle cx="20" cy="20" r="20" fill="white" fill-opacity="0.15"/>
<path d="M20 32C26.6274 32 32 26.6274 32 20C32 13.3726 26.6274 8 20 8C13.3726 8 8 13.3726 8 20C8 26.6274 13.3726 32 20 32Z" fill="#F0F0F0"/>
<path d="M10.4806 12.6943C9.53796 13.9207 8.82719 15.3342 8.41333 16.8698H14.656L10.4806 12.6943Z" fill="#0052B4"/>
<path d="M31.5866 16.8698C31.1728 15.3342 30.4619 13.9207 29.5194 12.6943L25.344 16.8698H31.5866Z" fill="#0052B4"/>
<path d="M8.41333 23.1309C8.82724 24.6664 9.538 26.0799 10.4806 27.3063L14.6559 23.1309H8.41333Z" fill="#0052B4"/>
<path d="M27.3058 10.4809C26.0794 9.53825 24.6659 8.82748 23.1304 8.41357V14.6562L27.3058 10.4809Z" fill="#0052B4"/>
<path d="M12.6941 29.5196C13.9205 30.4622 15.334 31.173 16.8695 31.5869V25.3442L12.6941 29.5196Z" fill="#0052B4"/>
<path d="M16.8695 8.41357C15.334 8.82748 13.9204 9.53825 12.6941 10.4808L16.8695 14.6562V8.41357Z" fill="#0052B4"/>
<path d="M23.1304 31.5869C24.6659 31.173 26.0794 30.4622 27.3058 29.5196L23.1304 25.3442V31.5869Z" fill="#0052B4"/>
<path d="M25.344 23.1309L29.5194 27.3063C30.4619 26.08 31.1728 24.6664 31.5866 23.1309H25.344Z" fill="#0052B4"/>
<path d="M31.8984 18.4348H21.5653H21.5653V8.10158C21.0529 8.03488 20.5305 8 20 8C19.4694 8 18.9471 8.03488 18.4348 8.10158V18.4347V18.4347H8.10158C8.03488 18.9471 8 19.4695 8 20C8 20.5306 8.03488 21.0529 8.10158 21.5652H18.4347H18.4347V31.8984C18.9471 31.9651 19.4694 32 20 32C20.5305 32 21.0529 31.9652 21.5652 31.8984V21.5653V21.5653H31.8984C31.9651 21.0529 32 20.5306 32 20C32 19.4695 31.9651 18.9471 31.8984 18.4348Z" fill="#D80027"/>
<path d="M23.1304 23.1304L28.4852 28.4852C28.7315 28.239 28.9664 27.9817 29.1906 27.7148L24.6061 23.1304H23.1304V23.1304Z" fill="#D80027"/>
<path d="M16.8695 23.1304H16.8694L11.5146 28.4851C11.7608 28.7314 12.0182 28.9664 12.285 29.1905L16.8695 24.6059V23.1304Z" fill="#D80027"/>
<path d="M16.8695 16.8696V16.8695L11.5147 11.5146C11.2684 11.7608 11.0335 12.0182 10.8093 12.285L15.3938 16.8696H16.8695V16.8696Z" fill="#D80027"/>
<path d="M23.1304 16.8698L28.4852 11.5149C28.239 11.2686 27.9817 11.0337 27.7148 10.8096L23.1304 15.3941V16.8698Z" fill="#D80027"/>
</svg>
